STARTFONT 2.1
FONT -ucw.cz-Haxor-Narrow-R-Normal--18-120-72-72-M-72-iso8859-2
SIZE 18 72 72
FONTBOUNDINGBOX 10 23 0 -5
STARTPROPERTIES 16
POINT_SIZE 120
PIXEL_SIZE 18
RESOLUTION_X 72
RESOLUTION_Y 72
FONT_ASCENT 18
FONT_DESCENT 5
AVERAGE_WIDTH 72
SPACING "M"
_GBDFED_INFO "Edited with gbdfed 1.6."
CHARSET_ENCODING "2"
CHARSET_REGISTRY "iso8859"
FAMILY_NAME "Haxor"
FOUNDRY "ucw.cz"
SETWIDTH_NAME "Normal"
SLANT "R"
WEIGHT_NAME "Narrow"
ENDPROPERTIES
CHARS 201
STARTCHAR char0
ENCODING 0
SWIDTH 555 0
DWIDTH 10 0
BBX 9 14 0 0
BITMAP
FF80
FF80
FF80
FF80
FF80
FF80
FF80
FF80
FF80
FF80
FF80
FF80
FF80
FF80
ENDCHAR
STARTCHAR char1
ENCODING 1
SWIDTH 555 0
DWIDTH 10 0
BBX 9 9 0 2
BITMAP
0800
1C00
3E00
7F00
FF80
7F00
3E00
1C00
0800
ENDCHAR
STARTCHAR char2
ENCODING 2
SWIDTH 555 0
DWIDTH 10 0
BBX 9 14 0 0
BITMAP
AA80
5500
AA80
5500
AA80
5500
AA80
5500
AA80
5500
AA80
5500
AA80
5500
ENDCHAR
STARTCHAR char11
ENCODING 11
SWIDTH 555 0
DWIDTH 10 0
BBX 6 11 0 7
BITMAP
04
04
04
04
04
04
04
04
04
08
F0
ENDCHAR
STARTCHAR char12
ENCODING 12
SWIDTH 555 0
DWIDTH 10 0
BBX 6 13 0 -5
BITMAP
F0
08
04
04
04
04
04
04
04
04
04
04
04
ENDCHAR
STARTCHAR char13
ENCODING 13
SWIDTH 555 0
DWIDTH 10 0
BBX 5 13 5 -5
BITMAP
38
40
80
80
80
80
80
80
80
80
80
80
80
ENDCHAR
STARTCHAR char14
ENCODING 14
SWIDTH 555 0
DWIDTH 10 0
BBX 5 11 5 7
BITMAP
80
80
80
80
80
80
80
80
80
40
38
ENDCHAR
STARTCHAR char15
ENCODING 15
SWIDTH 555 0
DWIDTH 10 0
BBX 10 23 0 -5
BITMAP
0400
0400
0400
0400
0400
0400
0400
0400
0400
0A00
F1C0
0A00
0400
0400
0400
0400
0400
0400
0400
0400
0400
0400
0400
ENDCHAR
STARTCHAR char16
ENCODING 16
SWIDTH 555 0
DWIDTH 10 0
BBX 10 1 0 12
BITMAP
FFC0
ENDCHAR
STARTCHAR char17
ENCODING 17
SWIDTH 555 0
DWIDTH 10 0
BBX 10 1 0 8
BITMAP
FFC0
ENDCHAR
STARTCHAR char18
ENCODING 18
SWIDTH 555 0
DWIDTH 10 0
BBX 10 1 0 7
BITMAP
FFC0
ENDCHAR
STARTCHAR char19
ENCODING 19
SWIDTH 555 0
DWIDTH 10 0
BBX 10 1 0 3
BITMAP
FFC0
ENDCHAR
STARTCHAR char20
ENCODING 20
SWIDTH 555 0
DWIDTH 10 0
BBX 10 1 0 1
BITMAP
FFC0
ENDCHAR
STARTCHAR char21
ENCODING 21
SWIDTH 555 0
DWIDTH 10 0
BBX 5 23 5 -5
BITMAP
80
80
80
80
80
80
80
80
80
40
38
40
80
80
80
80
80
80
80
80
80
80
80
ENDCHAR
STARTCHAR char22
ENCODING 22
SWIDTH 555 0
DWIDTH 10 0
BBX 6 23 0 -5
BITMAP
04
04
04
04
04
04
04
04
04
08
F0
08
04
04
04
04
04
04
04
04
04
04
04
ENDCHAR
STARTCHAR char23
ENCODING 23
SWIDTH 555 0
DWIDTH 10 0
BBX 10 11 0 7
BITMAP
0400
0400
0400
0400
0400
0400
0400
0400
0400
0A00
F1C0
ENDCHAR
STARTCHAR char24
ENCODING 24
SWIDTH 555 0
DWIDTH 10 0
BBX 10 13 0 -5
BITMAP
F1C0
0A00
0400
0400
0400
0400
0400
0400
0400
0400
0400
0400
0400
ENDCHAR
STARTCHAR char25
ENCODING 25
SWIDTH 555 0
DWIDTH 10 0
BBX 1 23 5 -5
BITMAP
80
80
80
80
80
80
80
80
80
80
80
80
80
80
80
80
80
80
80
80
80
80
80
ENDCHAR
STARTCHAR space
ENCODING 32
SWIDTH 555 0
DWIDTH 10 0
BBX 0 0 0 0
BITMAP
ENDCHAR
STARTCHAR exclam
ENCODING 33
SWIDTH 555 0
DWIDTH 10 0
BBX 1 15 4 0
BITMAP
80
80
80
80
80
80
80
80
80
80
80
00
00
80
80
ENDCHAR
STARTCHAR char34
ENCODING 34
SWIDTH 555 0
DWIDTH 10 0
BBX 8 5 0 10
BITMAP
E7
21
21
21
42
ENDCHAR
STARTCHAR hash
ENCODING 35
SWIDTH 555 0
DWIDTH 10 0
BBX 10 13 0 0
BITMAP
0900
0900
0900
0900
7FC0
1200
1200
1200
FF80
2400
2400
2400
2400
ENDCHAR
STARTCHAR dolar
ENCODING 36
SWIDTH 555 0
DWIDTH 10 0
BBX 9 15 0 0
BITMAP
0800
3E00
4900
8880
8880
8800
4800
3E00
0900
0880
8880
8880
4900
3E00
0800
ENDCHAR
STARTCHAR char37
ENCODING 37
SWIDTH 555 0
DWIDTH 10 0
BBX 9 15 0 0
BITMAP
7080
8880
8900
8A00
7200
0400
0400
0800
1000
1000
2700
2880
4880
8880
8700
ENDCHAR
STARTCHAR amp
ENCODING 38
SWIDTH 555 0
DWIDTH 10 0
BBX 8 15 0 0
BITMAP
1C
22
22
22
22
24
28
30
68
C9
85
83
83
C2
7D
ENDCHAR
STARTCHAR char39
ENCODING 39
SWIDTH 555 0
DWIDTH 10 0
BBX 3 5 2 10
BITMAP
E0
20
20
20
40
ENDCHAR
STARTCHAR char40
ENCODING 40
SWIDTH 555 0
DWIDTH 10 0
BBX 4 17 2 -1
BITMAP
10
20
40
40
80
80
80
80
80
80
80
80
80
40
40
20
10
ENDCHAR
STARTCHAR char41
ENCODING 41
SWIDTH 555 0
DWIDTH 10 0
BBX 4 17 2 -1
BITMAP
80
40
20
20
10
10
10
10
10
10
10
10
10
20
20
40
80
ENDCHAR
STARTCHAR asterisk
ENCODING 42
SWIDTH 555 0
DWIDTH 10 0
BBX 7 8 0 3
BITMAP
10
10
D6
38
38
D6
10
10
ENDCHAR
STARTCHAR plus
ENCODING 43
SWIDTH 555 0
DWIDTH 10 0
BBX 7 7 0 4
BITMAP
10
10
10
FE
10
10
10
ENDCHAR
STARTCHAR char44
ENCODING 44
SWIDTH 555 0
DWIDTH 10 0
BBX 3 5 2 -1
BITMAP
E0
20
20
20
40
ENDCHAR
STARTCHAR char45
ENCODING 45
SWIDTH 555 0
DWIDTH 10 0
BBX 6 1 1 7
BITMAP
FC
ENDCHAR
STARTCHAR char46
ENCODING 46
SWIDTH 555 0
DWIDTH 10 0
BBX 2 3 3 0
BITMAP
C0
C0
C0
ENDCHAR
STARTCHAR char47
ENCODING 47
SWIDTH 555 0
DWIDTH 10 0
BBX 6 15 1 0
BITMAP
04
04
04
08
08
10
10
10
20
20
40
40
40
80
80
ENDCHAR
STARTCHAR char48
ENCODING 48
SWIDTH 555 0
DWIDTH 10 0
BBX 7 15 1 0
BITMAP
38
44
82
82
82
82
8A
92
A2
82
82
82
82
44
38
ENDCHAR
STARTCHAR char49
ENCODING 49
SWIDTH 555 0
DWIDTH 10 0
BBX 4 15 2 0
BITMAP
30
50
90
10
10
10
10
10
10
10
10
10
10
10
10
ENDCHAR
STARTCHAR char50
ENCODING 50
SWIDTH 555 0
DWIDTH 10 0
BBX 7 15 1 0
BITMAP
38
44
82
82
02
04
04
08
10
20
40
40
80
80
FE
ENDCHAR
STARTCHAR char51
ENCODING 51
SWIDTH 555 0
DWIDTH 10 0
BBX 7 15 1 0
BITMAP
78
84
02
02
02
04
18
04
02
02
02
02
02
84
78
ENDCHAR
STARTCHAR char52
ENCODING 52
SWIDTH 555 0
DWIDTH 10 0
BBX 7 15 1 0
BITMAP
04
0C
0C
14
24
24
44
84
FE
04
04
04
04
04
04
ENDCHAR
STARTCHAR char53
ENCODING 53
SWIDTH 555 0
DWIDTH 10 0
BBX 7 15 1 0
BITMAP
FE
80
80
80
80
F8
04
02
02
02
02
02
02
84
78
ENDCHAR
STARTCHAR char54
ENCODING 54
SWIDTH 555 0
DWIDTH 10 0
BBX 7 15 1 0
BITMAP
38
44
82
80
80
B8
C4
82
82
82
82
82
82
44
38
ENDCHAR
STARTCHAR char55
ENCODING 55
SWIDTH 555 0
DWIDTH 10 0
BBX 7 15 1 0
BITMAP
FE
02
02
02
04
04
04
08
08
10
10
10
10
10
10
ENDCHAR
STARTCHAR char56
ENCODING 56
SWIDTH 555 0
DWIDTH 10 0
BBX 7 15 1 0
BITMAP
38
44
82
82
82
44
38
44
82
82
82
82
82
44
38
ENDCHAR
STARTCHAR char57
ENCODING 57
SWIDTH 555 0
DWIDTH 10 0
BBX 7 15 1 0
BITMAP
38
44
82
82
82
82
82
46
3A
02
02
02
82
44
38
ENDCHAR
STARTCHAR char58
ENCODING 58
SWIDTH 555 0
DWIDTH 10 0
BBX 2 8 4 3
BITMAP
C0
C0
00
00
00
00
C0
C0
ENDCHAR
STARTCHAR char59
ENCODING 59
SWIDTH 555 0
DWIDTH 10 0
BBX 2 9 4 2
BITMAP
C0
C0
00
00
00
00
C0
40
80
ENDCHAR
STARTCHAR char60
ENCODING 60
SWIDTH 555 0
DWIDTH 10 0
BBX 8 11 0 2
BITMAP
01
06
08
30
40
80
40
30
08
06
01
ENDCHAR
STARTCHAR char61
ENCODING 61
SWIDTH 555 0
DWIDTH 10 0
BBX 8 7 0 4
BITMAP
FF
00
00
00
00
00
FF
ENDCHAR
STARTCHAR char62
ENCODING 62
SWIDTH 555 0
DWIDTH 10 0
BBX 8 11 0 2
BITMAP
80
60
10
0C
02
01
02
0C
10
60
80
ENDCHAR
STARTCHAR char63
ENCODING 63
SWIDTH 555 0
DWIDTH 10 0
BBX 7 16 1 0
BITMAP
38
44
82
82
02
02
04
08
08
10
10
10
00
00
10
10
ENDCHAR
STARTCHAR char64
ENCODING 64
SWIDTH 555 0
DWIDTH 10 0
BBX 8 15 0 0
BITMAP
3C
42
81
81
8D
93
91
91
91
93
8D
80
80
41
3E
ENDCHAR
STARTCHAR A
ENCODING 65
SWIDTH 555 0
DWIDTH 10 0
BBX 8 15 0 0
BITMAP
18
24
24
42
42
42
81
81
FF
81
81
81
81
81
81
ENDCHAR
STARTCHAR B
ENCODING 66
SWIDTH 555 0
DWIDTH 10 0
BBX 8 15 0 0
BITMAP
FC
82
81
81
81
82
FC
82
81
81
81
81
81
82
FC
ENDCHAR
STARTCHAR C
ENCODING 67
SWIDTH 555 0
DWIDTH 10 0
BBX 8 15 0 0
BITMAP
3C
42
81
80
80
80
80
80
80
80
80
80
81
42
3C
ENDCHAR
STARTCHAR D
ENCODING 68
SWIDTH 555 0
DWIDTH 10 0
BBX 8 15 0 0
BITMAP
FC
82
81
81
81
81
81
81
81
81
81
81
81
82
FC
ENDCHAR
STARTCHAR E
ENCODING 69
SWIDTH 555 0
DWIDTH 10 0
BBX 8 15 0 0
BITMAP
FF
80
80
80
80
80
FC
80
80
80
80
80
80
80
FF
ENDCHAR
STARTCHAR F
ENCODING 70
SWIDTH 555 0
DWIDTH 10 0
BBX 8 15 0 0
BITMAP
FF
80
80
80
80
80
FC
80
80
80
80
80
80
80
80
ENDCHAR
STARTCHAR G
ENCODING 71
SWIDTH 555 0
DWIDTH 10 0
BBX 8 15 0 0
BITMAP
3C
42
81
80
80
80
80
80
8F
81
81
81
81
42
3C
ENDCHAR
STARTCHAR char72
ENCODING 72
SWIDTH 555 0
DWIDTH 10 0
BBX 8 15 0 0
BITMAP
81
81
81
81
81
81
FF
81
81
81
81
81
81
81
81
ENDCHAR
STARTCHAR I
ENCODING 73
SWIDTH 555 0
DWIDTH 10 0
BBX 5 15 2 0
BITMAP
F8
20
20
20
20
20
20
20
20
20
20
20
20
20
F8
ENDCHAR
STARTCHAR J
ENCODING 74
SWIDTH 555 0
DWIDTH 10 0
BBX 8 15 0 0
BITMAP
FF
01
01
01
01
01
01
01
01
01
01
81
81
42
3C
ENDCHAR
STARTCHAR K
ENCODING 75
SWIDTH 555 0
DWIDTH 10 0
BBX 9 15 0 0
BITMAP
8100
8200
8400
8800
9000
A000
C000
C000
A000
9000
8800
8400
8200
8100
8080
ENDCHAR
STARTCHAR L
ENCODING 76
SWIDTH 555 0
DWIDTH 10 0
BBX 8 15 0 0
BITMAP
80
80
80
80
80
80
80
80
80
80
80
80
80
80
FF
ENDCHAR
STARTCHAR M
ENCODING 77
SWIDTH 555 0
DWIDTH 10 0
BBX 8 15 0 0
BITMAP
81
C3
C3
A5
A5
99
99
81
81
81
81
81
81
81
81
ENDCHAR
STARTCHAR N
ENCODING 78
SWIDTH 555 0
DWIDTH 10 0
BBX 8 15 0 0
BITMAP
81
81
81
C1
A1
A1
91
89
85
85
83
81
81
81
81
ENDCHAR
STARTCHAR O
ENCODING 79
SWIDTH 555 0
DWIDTH 10 0
BBX 8 15 0 0
BITMAP
3C
42
81
81
81
81
81
81
81
81
81
81
81
42
3C
ENDCHAR
STARTCHAR P
ENCODING 80
SWIDTH 555 0
DWIDTH 10 0
BBX 8 15 0 0
BITMAP
FC
82
81
81
81
81
82
FC
80
80
80
80
80
80
80
ENDCHAR
STARTCHAR Q
ENCODING 81
SWIDTH 555 0
DWIDTH 10 0
BBX 8 15 0 0
BITMAP
3C
42
81
81
81
81
81
81
81
81
81
89
85
42
3D
ENDCHAR
STARTCHAR R
ENCODING 82
SWIDTH 555 0
DWIDTH 10 0
BBX 8 15 0 0
BITMAP
FC
82
81
81
81
81
82
FC
88
84
84
82
82
81
81
ENDCHAR
STARTCHAR S
ENCODING 83
SWIDTH 555 0
DWIDTH 10 0
BBX 8 15 0 0
BITMAP
3C
42
81
80
80
80
40
3C
02
01
01
01
81
42
3C
ENDCHAR
STARTCHAR T
ENCODING 84
SWIDTH 555 0
DWIDTH 10 0
BBX 7 15 1 0
BITMAP
FE
10
10
10
10
10
10
10
10
10
10
10
10
10
10
ENDCHAR
STARTCHAR U
ENCODING 85
SWIDTH 555 0
DWIDTH 10 0
BBX 8 15 0 0
BITMAP
81
81
81
81
81
81
81
81
81
81
81
81
81
42
3C
ENDCHAR
STARTCHAR V
ENCODING 86
SWIDTH 555 0
DWIDTH 10 0
BBX 8 15 0 0
BITMAP
81
81
81
81
81
81
42
42
42
42
24
24
24
18
18
ENDCHAR
STARTCHAR W
ENCODING 87
SWIDTH 555 0
DWIDTH 10 0
BBX 8 15 0 0
BITMAP
81
81
81
81
81
81
81
81
99
99
A5
A5
A5
42
42
ENDCHAR
STARTCHAR X
ENCODING 88
SWIDTH 555 0
DWIDTH 10 0
BBX 8 15 0 0
BITMAP
81
81
42
42
24
24
18
18
18
24
24
42
42
81
81
ENDCHAR
STARTCHAR Y
ENCODING 89
SWIDTH 555 0
DWIDTH 10 0
BBX 9 15 0 0
BITMAP
8080
8080
4100
4100
2200
2200
1400
1400
0800
0800
0800
0800
0800
0800
0800
ENDCHAR
STARTCHAR Z
ENCODING 90
SWIDTH 555 0
DWIDTH 10 0
BBX 8 15 0 0
BITMAP
FF
01
02
02
04
04
08
10
20
20
40
40
80
80
FF
ENDCHAR
STARTCHAR bracketleft
ENCODING 91
SWIDTH 555 0
DWIDTH 10 0
BBX 4 15 2 0
BITMAP
F0
80
80
80
80
80
80
80
80
80
80
80
80
80
F0
ENDCHAR
STARTCHAR backslash
ENCODING 92
SWIDTH 555 0
DWIDTH 10 0
BBX 6 15 1 0
BITMAP
80
80
80
40
40
20
20
20
10
10
08
08
08
04
04
ENDCHAR
STARTCHAR char93
ENCODING 93
SWIDTH 555 0
DWIDTH 10 0
BBX 4 15 2 0
BITMAP
F0
10
10
10
10
10
10
10
10
10
10
10
10
10
F0
ENDCHAR
STARTCHAR char
ENCODING 94
SWIDTH 555 0
DWIDTH 10 0
BBX 8 4 0 11
BITMAP
18
24
42
81
ENDCHAR
STARTCHAR underscore
ENCODING 95
SWIDTH 555 0
DWIDTH 10 0
BBX 8 1 0 0
BITMAP
FF
ENDCHAR
STARTCHAR char96
ENCODING 96
SWIDTH 555 0
DWIDTH 10 0
BBX 4 4 1 11
BITMAP
80
40
20
10
ENDCHAR
STARTCHAR a
ENCODING 97
SWIDTH 555 0
DWIDTH 10 0
BBX 7 12 1 0
BITMAP
7C
82
02
02
02
7E
82
82
82
82
86
7A
ENDCHAR
STARTCHAR b
ENCODING 98
SWIDTH 555 0
DWIDTH 10 0
BBX 7 16 1 0
BITMAP
80
80
80
80
BC
C2
82
82
82
82
82
82
82
82
C2
BC
ENDCHAR
STARTCHAR c
ENCODING 99
SWIDTH 555 0
DWIDTH 10 0
BBX 7 12 1 0
BITMAP
3C
42
80
80
80
80
80
80
80
80
42
3C
ENDCHAR
STARTCHAR d
ENCODING 100
SWIDTH 555 0
DWIDTH 10 0
BBX 7 16 1 0
BITMAP
02
02
02
02
7A
86
82
82
82
82
82
82
82
82
86
7A
ENDCHAR
STARTCHAR e
ENCODING 101
SWIDTH 555 0
DWIDTH 10 0
BBX 7 12 1 0
BITMAP
7C
82
82
82
82
FE
80
80
80
80
82
7C
ENDCHAR
STARTCHAR f
ENCODING 102
SWIDTH 555 0
DWIDTH 10 0
BBX 8 16 0 0
BITMAP
1E
21
20
20
20
FE
20
20
20
20
20
20
20
20
20
20
ENDCHAR
STARTCHAR g
ENCODING 103
SWIDTH 555 0
DWIDTH 10 0
BBX 8 15 0 -3
BITMAP
7F
82
82
82
82
82
FC
80
80
FE
81
81
81
81
7E
ENDCHAR
STARTCHAR h
ENCODING 104
SWIDTH 555 0
DWIDTH 10 0
BBX 7 16 1 0
BITMAP
80
80
80
80
BC
C2
82
82
82
82
82
82
82
82
82
82
ENDCHAR
STARTCHAR char105
ENCODING 105
SWIDTH 555 0
DWIDTH 10 0
BBX 5 15 2 0
BITMAP
20
00
00
E0
20
20
20
20
20
20
20
20
20
20
F8
ENDCHAR
STARTCHAR j
ENCODING 106
SWIDTH 555 0
DWIDTH 10 0
BBX 6 17 1 -2
BITMAP
04
00
00
1C
04
04
04
04
04
04
04
04
04
04
04
84
78
ENDCHAR
STARTCHAR k
ENCODING 107
SWIDTH 555 0
DWIDTH 10 0
BBX 8 16 1 0
BITMAP
80
80
80
80
82
84
88
90
A0
C0
A0
90
88
84
82
81
ENDCHAR
STARTCHAR l
ENCODING 108
SWIDTH 555 0
DWIDTH 10 0
BBX 5 15 2 0
BITMAP
E0
20
20
20
20
20
20
20
20
20
20
20
20
20
F8
ENDCHAR
STARTCHAR m
ENCODING 109
SWIDTH 555 0
DWIDTH 10 0
BBX 9 12 0 0
BITMAP
F700
8880
8880
8880
8880
8880
8880
8880
8880
8880
8880
8880
ENDCHAR
STARTCHAR n
ENCODING 110
SWIDTH 555 0
DWIDTH 10 0
BBX 7 12 1 0
BITMAP
BC
C2
82
82
82
82
82
82
82
82
82
82
ENDCHAR
STARTCHAR o
ENCODING 111
SWIDTH 555 0
DWIDTH 10 0
BBX 8 12 0 0
BITMAP
3C
42
81
81
81
81
81
81
81
81
42
3C
ENDCHAR
STARTCHAR p
ENCODING 112
SWIDTH 555 0
DWIDTH 10 0
BBX 7 15 1 -3
BITMAP
BC
C2
82
82
82
82
82
82
82
82
C2
BC
80
80
80
ENDCHAR
STARTCHAR q
ENCODING 113
SWIDTH 555 0
DWIDTH 10 0
BBX 7 15 1 -3
BITMAP
7A
86
82
82
82
82
82
82
82
82
86
7A
02
02
02
ENDCHAR
STARTCHAR r
ENCODING 114
SWIDTH 555 0
DWIDTH 10 0
BBX 7 12 1 0
BITMAP
BC
C2
80
80
80
80
80
80
80
80
80
80
ENDCHAR
STARTCHAR s
ENCODING 115
SWIDTH 555 0
DWIDTH 10 0
BBX 8 12 0 0
BITMAP
3C
42
40
40
30
0C
02
01
01
81
42
3C
ENDCHAR
STARTCHAR t
ENCODING 116
SWIDTH 555 0
DWIDTH 10 0
BBX 8 16 0 0
BITMAP
20
20
20
20
FC
20
20
20
20
20
20
20
20
20
21
1E
ENDCHAR
STARTCHAR u
ENCODING 117
SWIDTH 555 0
DWIDTH 10 0
BBX 7 12 1 0
BITMAP
82
82
82
82
82
82
82
82
82
82
86
7A
ENDCHAR
STARTCHAR v
ENCODING 118
SWIDTH 555 0
DWIDTH 10 0
BBX 9 12 0 0
BITMAP
8080
8080
4100
4100
4100
2200
2200
2200
1400
1400
1400
0800
ENDCHAR
STARTCHAR w
ENCODING 119
SWIDTH 555 0
DWIDTH 10 0
BBX 8 12 0 0
BITMAP
81
81
81
81
81
81
99
99
A5
A5
42
42
ENDCHAR
STARTCHAR x
ENCODING 120
SWIDTH 555 0
DWIDTH 10 0
BBX 8 12 0 0
BITMAP
81
81
42
24
24
18
18
24
24
42
81
81
ENDCHAR
STARTCHAR y
ENCODING 121
SWIDTH 555 0
DWIDTH 10 0
BBX 9 15 0 -3
BITMAP
8080
8080
4100
4100
4100
2200
2200
1400
1400
0800
0800
1000
1000
2000
2000
ENDCHAR
STARTCHAR z
ENCODING 122
SWIDTH 555 0
DWIDTH 10 0
BBX 8 12 0 0
BITMAP
FF
01
02
04
04
08
10
20
20
40
80
FF
ENDCHAR
STARTCHAR braceleft
ENCODING 123
SWIDTH 555 0
DWIDTH 10 0
BBX 3 15 3 0
BITMAP
60
80
80
80
80
40
40
80
40
40
80
80
80
80
60
ENDCHAR
STARTCHAR bar
ENCODING 124
SWIDTH 555 0
DWIDTH 10 0
BBX 1 15 4 0
BITMAP
80
80
80
80
80
80
80
80
80
80
80
80
80
80
80
ENDCHAR
STARTCHAR braceright
ENCODING 125
SWIDTH 555 0
DWIDTH 10 0
BBX 3 15 4 0
BITMAP
C0
20
20
20
20
40
40
20
40
40
20
20
20
20
C0
ENDCHAR
STARTCHAR tilda
ENCODING 126
SWIDTH 555 0
DWIDTH 10 0
BBX 8 3 0 6
BITMAP
60
99
06
ENDCHAR
STARTCHAR Aogonek
ENCODING 161
SWIDTH 555 0
DWIDTH 10 0
BBX 8 18 0 -4
BITMAP
18
24
24
42
42
42
81
81
FF
81
81
81
81
81
02
04
04
03
ENDCHAR
STARTCHAR Lslash
ENCODING 163
SWIDTH 555 0
DWIDTH 10 0
BBX 8 15 0 0
BITMAP
40
40
40
40
40
50
60
40
C0
40
40
40
40
40
7F
ENDCHAR
STARTCHAR currency
ENCODING 164
SWIDTH 555 0
DWIDTH 10 0
BBX 8 8 1 3
BITMAP
BD
42
81
81
81
81
42
BD
ENDCHAR
STARTCHAR Lcaron
ENCODING 165
SWIDTH 555 0
DWIDTH 10 0
BBX 8 16 0 0
BITMAP
30
90
90
A0
80
80
80
80
80
80
80
80
80
80
80
FF
ENDCHAR
STARTCHAR Sacute
ENCODING 166
SWIDTH 555 0
DWIDTH 10 0
BBX 8 18 0 0
BITMAP
08
10
00
3C
42
81
80
80
80
40
3C
02
01
01
01
81
42
3C
ENDCHAR
STARTCHAR section
ENCODING 167
SWIDTH 555 0
DWIDTH 10 0
BBX 7 16 1 0
BITMAP
7C
82
82
80
80
70
8C
82
82
62
1C
02
02
82
82
7C
ENDCHAR
STARTCHAR Scaron
ENCODING 169
SWIDTH 555 0
DWIDTH 10 0
BBX 8 18 0 0
BITMAP
24
18
00
3C
42
81
80
80
80
40
3C
02
01
01
01
81
42
3C
ENDCHAR
STARTCHAR Scedilla
ENCODING 170
SWIDTH 555 0
DWIDTH 10 0
BBX 8 19 0 -4
BITMAP
3C
42
81
80
80
80
40
3C
02
01
01
01
81
42
3C
08
04
04
18
ENDCHAR
STARTCHAR Tcaron
ENCODING 171
SWIDTH 555 0
DWIDTH 10 0
BBX 8 18 0 0
BITMAP
14
08
00
7F
08
08
08
08
08
08
08
08
08
08
08
08
08
08
ENDCHAR
STARTCHAR Zacute
ENCODING 172
SWIDTH 555 0
DWIDTH 10 0
BBX 8 18 0 0
BITMAP
08
10
00
FF
01
02
02
04
04
08
10
20
20
40
40
80
80
FF
ENDCHAR
STARTCHAR Zcaron
ENCODING 174
SWIDTH 555 0
DWIDTH 10 0
BBX 8 18 0 0
BITMAP
24
18
00
FF
01
02
02
04
04
08
10
20
20
40
40
80
80
FF
ENDCHAR
STARTCHAR Zdotaccent
ENCODING 175
SWIDTH 555 0
DWIDTH 10 0
BBX 8 18 0 0
BITMAP
18
18
00
FF
01
02
02
04
04
08
10
20
20
40
40
80
80
FF
ENDCHAR
STARTCHAR degree
ENCODING 176
SWIDTH 555 0
DWIDTH 10 0
BBX 5 5 1 10
BITMAP
70
88
88
88
70
ENDCHAR
STARTCHAR aogonek
ENCODING 177
SWIDTH 555 0
DWIDTH 10 0
BBX 7 16 1 -4
BITMAP
7C
82
02
02
02
7E
82
82
82
82
86
7A
20
40
40
30
ENDCHAR
STARTCHAR lslash
ENCODING 179
SWIDTH 555 0
DWIDTH 10 0
BBX 5 15 2 0
BITMAP
E0
20
20
20
20
28
30
20
60
A0
20
20
20
20
F8
ENDCHAR
STARTCHAR acute
ENCODING 180
SWIDTH 555 0
DWIDTH 10 0
BBX 2 2 3 15
BITMAP
40
80
ENDCHAR
STARTCHAR lcaron
ENCODING 181
SWIDTH 555 0
DWIDTH 10 0
BBX 6 17 2 0
BITMAP
0C
04
E8
20
20
20
20
20
20
20
20
20
20
20
20
20
F8
ENDCHAR
STARTCHAR sacute
ENCODING 182
SWIDTH 555 0
DWIDTH 10 0
BBX 8 15 0 0
BITMAP
18
24
00
3C
42
40
40
30
0C
02
01
01
81
42
3C
ENDCHAR
STARTCHAR caron
ENCODING 183
SWIDTH 555 0
DWIDTH 10 0
BBX 4 2 2 16
BITMAP
90
60
ENDCHAR
STARTCHAR scaron
ENCODING 185
SWIDTH 555 0
DWIDTH 10 0
BBX 8 15 0 0
BITMAP
24
18
00
3C
42
40
40
30
0C
02
01
01
81
42
3C
ENDCHAR
STARTCHAR scedilla
ENCODING 186
SWIDTH 555 0
DWIDTH 10 0
BBX 8 16 0 -4
BITMAP
3C
42
40
40
30
0C
02
01
01
81
42
3C
08
04
04
18
ENDCHAR
STARTCHAR tcaron
ENCODING 187
SWIDTH 555 0
DWIDTH 10 0
BBX 8 17 0 0
BITMAP
06
22
24
20
20
FC
20
20
20
20
20
20
20
20
20
21
1E
ENDCHAR
STARTCHAR zacute
ENCODING 188
SWIDTH 555 0
DWIDTH 10 0
BBX 8 15 0 0
BITMAP
08
10
00
FF
01
02
04
04
08
10
20
20
40
80
FF
ENDCHAR
STARTCHAR zcaron
ENCODING 190
SWIDTH 555 0
DWIDTH 10 0
BBX 8 15 0 0
BITMAP
24
18
00
FF
01
02
04
04
08
10
20
20
40
80
FF
ENDCHAR
STARTCHAR zdotaccent
ENCODING 191
SWIDTH 555 0
DWIDTH 10 0
BBX 8 15 0 0
BITMAP
18
18
00
FF
01
02
04
04
08
10
20
20
40
80
FF
ENDCHAR
STARTCHAR Racute
ENCODING 192
SWIDTH 555 0
DWIDTH 10 0
BBX 8 18 0 0
BITMAP
08
10
00
FC
82
81
81
81
81
82
FC
88
84
84
82
82
81
81
ENDCHAR
STARTCHAR Aacute
ENCODING 193
SWIDTH 555 0
DWIDTH 10 0
BBX 8 18 0 0
BITMAP
08
10
00
18
24
24
42
42
42
81
81
FF
81
81
81
81
81
81
ENDCHAR
STARTCHAR Acircumflex
ENCODING 194
SWIDTH 555 0
DWIDTH 10 0
BBX 8 18 0 0
BITMAP
18
24
00
18
24
24
42
42
42
81
81
FF
81
81
81
81
81
81
ENDCHAR
STARTCHAR Abreve
ENCODING 195
SWIDTH 555 0
DWIDTH 10 0
BBX 8 18 0 0
BITMAP
24
18
00
18
24
24
42
42
42
81
81
FF
81
81
81
81
81
81
ENDCHAR
STARTCHAR Adieresis
ENCODING 196
SWIDTH 555 0
DWIDTH 10 0
BBX 8 18 0 0
BITMAP
24
00
00
18
24
24
42
42
42
81
81
FF
81
81
81
81
81
81
ENDCHAR
STARTCHAR Lacute
ENCODING 197
SWIDTH 555 0
DWIDTH 10 0
BBX 8 18 0 0
BITMAP
40
80
00
80
80
80
80
80
80
80
80
80
80
80
80
80
80
FF
ENDCHAR
STARTCHAR Cacute
ENCODING 198
SWIDTH 555 0
DWIDTH 10 0
BBX 8 18 0 0
BITMAP
08
10
00
3C
42
81
80
80
80
80
80
80
80
80
80
81
42
3C
ENDCHAR
STARTCHAR Ccedilla
ENCODING 199
SWIDTH 555 0
DWIDTH 10 0
BBX 8 19 0 -4
BITMAP
3C
42
81
80
80
80
80
80
80
80
80
80
81
42
3C
08
04
04
18
ENDCHAR
STARTCHAR Ccaron
ENCODING 200
SWIDTH 555 0
DWIDTH 10 0
BBX 8 18 0 0
BITMAP
24
18
00
3C
42
81
80
80
80
80
80
80
80
80
80
81
42
3C
ENDCHAR
STARTCHAR Eacute
ENCODING 201
SWIDTH 555 0
DWIDTH 10 0
BBX 8 18 0 0
BITMAP
08
10
00
FF
80
80
80
80
80
FC
80
80
80
80
80
80
80
FF
ENDCHAR
STARTCHAR Eogonek
ENCODING 202
SWIDTH 555 0
DWIDTH 10 0
BBX 8 19 0 -4
BITMAP
FF
80
80
80
80
80
FC
80
80
80
80
80
80
80
FF
10
20
20
18
ENDCHAR
STARTCHAR Edieresis
ENCODING 203
SWIDTH 555 0
DWIDTH 10 0
BBX 8 17 0 0
BITMAP
24
00
FF
80
80
80
80
80
FC
80
80
80
80
80
80
80
FF
ENDCHAR
STARTCHAR Ecaron
ENCODING 204
SWIDTH 555 0
DWIDTH 10 0
BBX 8 18 0 0
BITMAP
24
18
00
FF
80
80
80
80
80
FC
80
80
80
80
80
80
80
FF
ENDCHAR
STARTCHAR Iacute
ENCODING 205
SWIDTH 555 0
DWIDTH 10 0
BBX 5 18 2 0
BITMAP
10
20
00
F8
20
20
20
20
20
20
20
20
20
20
20
20
20
F8
ENDCHAR
STARTCHAR Icircumflex
ENCODING 206
SWIDTH 555 0
DWIDTH 10 0
BBX 5 18 2 0
BITMAP
20
50
00
F8
20
20
20
20
20
20
20
20
20
20
20
20
20
F8
ENDCHAR
STARTCHAR Dcaron
ENCODING 207
SWIDTH 555 0
DWIDTH 10 0
BBX 8 18 0 0
BITMAP
24
18
00
FC
82
81
81
81
81
81
81
81
81
81
81
81
82
FC
ENDCHAR
STARTCHAR Dcroat
ENCODING 208
SWIDTH 555 0
DWIDTH 10 0
BBX 8 15 0 0
BITMAP
FC
82
81
81
81
81
81
F1
81
81
81
81
81
82
FC
ENDCHAR
STARTCHAR Nacute
ENCODING 209
SWIDTH 555 0
DWIDTH 10 0
BBX 8 18 0 0
BITMAP
08
10
00
81
81
81
C1
A1
A1
91
89
85
85
83
81
81
81
81
ENDCHAR
STARTCHAR Ncaron
ENCODING 210
SWIDTH 555 0
DWIDTH 10 0
BBX 8 18 0 0
BITMAP
24
18
00
81
81
81
C1
A1
A1
91
89
85
85
83
81
81
81
81
ENDCHAR
STARTCHAR Oacute
ENCODING 211
SWIDTH 555 0
DWIDTH 10 0
BBX 8 18 0 0
BITMAP
08
10
00
3C
42
81
81
81
81
81
81
81
81
81
81
81
42
3C
ENDCHAR
STARTCHAR Ocircumflex
ENCODING 212
SWIDTH 555 0
DWIDTH 10 0
BBX 8 18 0 0
BITMAP
18
24
00
3C
42
81
81
81
81
81
81
81
81
81
81
81
42
3C
ENDCHAR
STARTCHAR Ohungarumlaut
ENCODING 213
SWIDTH 555 0
DWIDTH 10 0
BBX 8 18 0 0
BITMAP
12
24
00
3C
42
81
81
81
81
81
81
81
81
81
81
81
42
3C
ENDCHAR
STARTCHAR Odieresis
ENCODING 214
SWIDTH 555 0
DWIDTH 10 0
BBX 8 18 0 0
BITMAP
24
00
3C
42
81
81
81
81
81
81
81
81
81
81
81
81
42
3C
ENDCHAR
STARTCHAR char215
ENCODING 215
SWIDTH 555 0
DWIDTH 10 0
BBX 6 6 1 4
BITMAP
84
48
30
30
48
84
ENDCHAR
STARTCHAR Rcaron
ENCODING 216
SWIDTH 555 0
DWIDTH 10 0
BBX 8 18 0 0
BITMAP
24
18
00
FC
82
81
81
81
81
82
FC
88
84
84
82
82
81
81
ENDCHAR
STARTCHAR Uring
ENCODING 217
SWIDTH 555 0
DWIDTH 10 0
BBX 7 18 0 0
BITMAP
18
24
24
18
80
82
82
82
82
82
82
82
82
82
82
82
44
38
ENDCHAR
STARTCHAR Uacute
ENCODING 218
SWIDTH 555 0
DWIDTH 10 0
BBX 8 18 0 0
BITMAP
08
10
00
81
81
81
81
81
81
81
81
81
81
81
81
81
42
3C
ENDCHAR
STARTCHAR Uhungarumlaut
ENCODING 219
SWIDTH 555 0
DWIDTH 10 0
BBX 8 18 0 0
BITMAP
12
24
00
81
81
81
81
81
81
81
81
81
81
81
81
81
42
3C
ENDCHAR
STARTCHAR Udieresis
ENCODING 220
SWIDTH 555 0
DWIDTH 10 0
BBX 8 18 0 0
BITMAP
24
00
00
81
81
81
81
81
81
81
81
81
81
81
81
81
42
3C
ENDCHAR
STARTCHAR Yacute
ENCODING 221
SWIDTH 555 0
DWIDTH 10 0
BBX 9 18 0 0
BITMAP
0800
1000
0000
8080
8080
4100
4100
2200
2200
1400
1400
0800
0800
0800
0800
0800
0800
0800
ENDCHAR
STARTCHAR Tcommaaccent
ENCODING 222
SWIDTH 555 0
DWIDTH 10 0
BBX 7 18 1 -3
BITMAP
FE
10
10
10
10
10
10
10
10
10
10
10
10
10
10
10
10
20
ENDCHAR
STARTCHAR germandbls
ENCODING 223
SWIDTH 555 0
DWIDTH 10 0
BBX 8 15 0 0
BITMAP
38
44
82
82
82
84
98
84
82
81
81
81
81
82
9C
ENDCHAR
STARTCHAR racute
ENCODING 224
SWIDTH 555 0
DWIDTH 10 0
BBX 7 15 1 0
BITMAP
08
10
00
BC
C2
80
80
80
80
80
80
80
80
80
80
ENDCHAR
STARTCHAR aacute
ENCODING 225
SWIDTH 555 0
DWIDTH 10 0
BBX 7 15 1 0
BITMAP
08
10
00
7C
82
02
02
02
7E
82
82
82
82
86
7A
ENDCHAR
STARTCHAR acircumflex
ENCODING 226
SWIDTH 555 0
DWIDTH 10 0
BBX 7 16 1 0
BITMAP
10
28
00
00
7C
82
02
02
02
7E
82
82
82
82
86
7A
ENDCHAR
STARTCHAR abreve
ENCODING 227
SWIDTH 555 0
DWIDTH 10 0
BBX 7 14 1 0
BITMAP
28
10
00
7C
82
02
02
02
7E
82
82
82
86
7A
ENDCHAR
STARTCHAR adieresis
ENCODING 228
SWIDTH 555 0
DWIDTH 10 0
BBX 7 14 1 0
BITMAP
28
00
7C
82
02
02
02
7E
82
82
82
82
86
7A
ENDCHAR
STARTCHAR lacute
ENCODING 229
SWIDTH 555 0
DWIDTH 10 0
BBX 5 18 2 0
BITMAP
10
20
00
E0
20
20
20
20
20
20
20
20
20
20
20
20
20
F8
ENDCHAR
STARTCHAR cacute
ENCODING 230
SWIDTH 555 0
DWIDTH 10 0
BBX 7 16 1 0
BITMAP
08
10
00
00
3C
42
80
80
80
80
80
80
80
80
42
3C
ENDCHAR
STARTCHAR ccedilla
ENCODING 231
SWIDTH 555 0
DWIDTH 10 0
BBX 7 15 1 -3
BITMAP
3C
42
80
80
80
80
80
80
80
80
42
3C
10
10
08
ENDCHAR
STARTCHAR ccaron
ENCODING 232
SWIDTH 555 0
DWIDTH 10 0
BBX 7 15 1 0
BITMAP
24
18
00
3C
42
80
80
80
80
80
80
80
80
42
3C
ENDCHAR
STARTCHAR eacute
ENCODING 233
SWIDTH 555 0
DWIDTH 10 0
BBX 7 15 1 0
BITMAP
08
10
00
7C
82
82
82
82
FE
80
80
80
80
82
7C
ENDCHAR
STARTCHAR eogonek
ENCODING 234
SWIDTH 555 0
DWIDTH 10 0
BBX 7 16 1 -4
BITMAP
7C
82
82
82
82
FE
80
80
80
80
82
7C
10
20
20
18
ENDCHAR
STARTCHAR edieresis
ENCODING 235
SWIDTH 555 0
DWIDTH 10 0
BBX 7 14 1 0
BITMAP
28
00
7C
82
82
82
82
FE
80
80
80
80
82
7C
ENDCHAR
STARTCHAR ecaron
ENCODING 236
SWIDTH 555 0
DWIDTH 10 0
BBX 7 15 1 0
BITMAP
28
10
00
7C
82
82
82
82
FE
80
80
80
80
82
7C
ENDCHAR
STARTCHAR iacute
ENCODING 237
SWIDTH 555 0
DWIDTH 10 0
BBX 5 15 2 0
BITMAP
10
20
00
E0
20
20
20
20
20
20
20
20
20
20
F8
ENDCHAR
STARTCHAR icircumflex
ENCODING 238
SWIDTH 555 0
DWIDTH 10 0
BBX 5 15 2 0
BITMAP
20
50
00
E0
20
20
20
20
20
20
20
20
20
20
F8
ENDCHAR
STARTCHAR dcaron
ENCODING 239
SWIDTH 555 0
DWIDTH 10 0
BBX 9 18 1 0
BITMAP
0180
0080
0280
0200
0200
0200
7A00
8600
8200
8200
8200
8200
8200
8200
8200
8200
8600
7A00
ENDCHAR
STARTCHAR dcroat
ENCODING 240
SWIDTH 555 0
DWIDTH 10 0
BBX 8 16 1 0
BITMAP
02
07
02
02
7A
86
82
82
82
82
82
82
82
82
86
7A
ENDCHAR
STARTCHAR nacute
ENCODING 241
SWIDTH 555 0
DWIDTH 10 0
BBX 7 15 1 0
BITMAP
08
10
00
BC
C2
82
82
82
82
82
82
82
82
82
82
ENDCHAR
STARTCHAR ncaron
ENCODING 242
SWIDTH 555 0
DWIDTH 10 0
BBX 7 15 1 0
BITMAP
28
10
00
BC
C2
82
82
82
82
82
82
82
82
82
82
ENDCHAR
STARTCHAR oacute
ENCODING 243
SWIDTH 555 0
DWIDTH 10 0
BBX 8 15 0 0
BITMAP
08
10
00
3C
42
81
81
81
81
81
81
81
81
42
3C
ENDCHAR
STARTCHAR ocircumflex
ENCODING 244
SWIDTH 555 0
DWIDTH 10 0
BBX 8 15 0 0
BITMAP
18
24
00
3C
42
81
81
81
81
81
81
81
81
42
3C
ENDCHAR
STARTCHAR ohungarumlaut
ENCODING 245
SWIDTH 555 0
DWIDTH 10 0
BBX 8 15 0 0
BITMAP
12
24
00
3C
42
81
81
81
81
81
81
81
81
42
3C
ENDCHAR
STARTCHAR odieresis
ENCODING 246
SWIDTH 555 0
DWIDTH 10 0
BBX 8 14 0 0
BITMAP
24
00
3C
42
81
81
81
81
81
81
81
81
42
3C
ENDCHAR
STARTCHAR char247
ENCODING 247
SWIDTH 555 0
DWIDTH 10 0
BBX 7 7 0 4
BITMAP
10
00
00
FE
00
00
10
ENDCHAR
STARTCHAR rcaron
ENCODING 248
SWIDTH 555 0
DWIDTH 10 0
BBX 7 15 1 0
BITMAP
24
18
00
BC
C2
80
80
80
80
80
80
80
80
80
80
ENDCHAR
STARTCHAR uring
ENCODING 249
SWIDTH 555 0
DWIDTH 10 0
BBX 7 15 1 0
BITMAP
10
28
10
82
82
82
82
82
82
82
82
82
82
86
7A
ENDCHAR
STARTCHAR uacute
ENCODING 250
SWIDTH 555 0
DWIDTH 10 0
BBX 7 15 1 0
BITMAP
08
10
00
82
82
82
82
82
82
82
82
82
82
86
7A
ENDCHAR
STARTCHAR uhungarumlaut
ENCODING 251
SWIDTH 555 0
DWIDTH 10 0
BBX 7 15 1 0
BITMAP
14
28
00
82
82
82
82
82
82
82
82
82
82
86
7A
ENDCHAR
STARTCHAR udieresis
ENCODING 252
SWIDTH 555 0
DWIDTH 10 0
BBX 7 14 1 0
BITMAP
28
00
82
82
82
82
82
82
82
82
82
82
86
7A
ENDCHAR
STARTCHAR yacute
ENCODING 253
SWIDTH 555 0
DWIDTH 10 0
BBX 9 18 0 -3
BITMAP
0400
0800
0000
8080
8080
4100
4100
4100
2200
2200
1400
1400
0800
0800
1000
1000
2000
2000
ENDCHAR
STARTCHAR tcommaaccent
ENCODING 254
SWIDTH 555 0
DWIDTH 10 0
BBX 8 19 0 -3
BITMAP
20
20
20
20
FC
20
20
20
20
20
20
20
20
20
21
1E
04
04
08
ENDCHAR
ENDFONT
